HIERARCHY
ROOT hip
{
  OFFSET 0 90.174 2.4664
  CHANNELS 6 Xposition Yposition Zposition Zrotation Xrotation Yrotation
  JOINT abdomen
  {
    OFFSET 0 -1.186 -1.5018
    CHANNELS 6 Xposition Yposition Zposition Zrotation Xrotation Yrotation
    JOINT abdomen2
    {
      OFFSET 0 9.964 0.2134
      CHANNELS 6 Xposition Yposition Zposition Zrotation Xrotation Yrotation
      JOINT chest
      {
        OFFSET 0 13.134 -3.2573
        CHANNELS 6 Xposition Yposition Zposition Zrotation Xrotation Yrotation
        JOINT neck
        {
          OFFSET 0 20.686 -1.6905
          CHANNELS 6 Xposition Yposition Zposition Zrotation Xrotation Yrotation
          JOINT head
          {
            OFFSET 0 7.238 -0.1237
            CHANNELS 6 Xposition Yposition Zposition Zrotation Xrotation Yrotation
            End Site
            {
              OFFSET 0 0 0
            }
          }
        }
        JOINT lCollar
        {
          OFFSET 1.7069 20.075 5.0056
          CHANNELS 6 Xposition Yposition Zposition Zrotation Xrotation Yrotation
          JOINT lShldr
          {
            OFFSET 13.6458 -0.047 -4.849
            CHANNELS 6 Xposition Yposition Zposition Zrotation Xrotation Yrotation
            JOINT lForeArm
            {
              OFFSET 28.3255 -0.9759 2.2888
              CHANNELS 6 Xposition Yposition Zposition Zrotation Xrotation Yrotation
              JOINT lHand
              {
                OFFSET 22.1583 -0.53 10.8316
                CHANNELS 6 Xposition Yposition Zposition Zrotation Xrotation Yrotation
                JOINT lThumb1
                {
                  OFFSET 0.786 0.112 2.5817
                  CHANNELS 6 Xposition Yposition Zposition Zrotation Xrotation Yrotation
                  JOINT lThumb2
                  {
                    OFFSET 0.3601 -0.878 4.2331
                    CHANNELS 6 Xposition Yposition Zposition Zrotation Xrotation Yrotation
                    JOINT lThumb2_End
                    {
                      OFFSET 1.8127 -1.216 2.2227
                      CHANNELS 6 Xposition Yposition Zposition Zrotation Xrotation Yrotation
                      End Site
                      {
                        OFFSET 0.0181 -0.0122 0.0222
                      }
                    }
                  }
                }
                JOINT lCarpal1
                {
                  OFFSET 0.9571 1.114 1.7695
                  CHANNELS 6 Xposition Yposition Zposition Zrotation Xrotation Yrotation
                  JOINT lIndex1
                  {
                    OFFSET 4.1246 0.487 4.1451
                    CHANNELS 6 Xposition Yposition Zposition Zrotation Xrotation Yrotation
                    JOINT lIndex2
                    {
                      OFFSET 3.4052 -1.454 2.7682
                      CHANNELS 6 Xposition Yposition Zposition Zrotation Xrotation Yrotation
                      JOINT lIndex2_End
                      {
                        OFFSET 1.4531 -1.795 1.2713
                        CHANNELS 6 Xposition Yposition Zposition Zrotation Xrotation Yrotation
                        End Site
                        {
                          OFFSET 0.0145 -0.0179 0.0127
                        }
                      }
                    }
                  }
                  JOINT lMid1
                  {
                    OFFSET 5.6954 0.21 2.1184
                    CHANNELS 6 Xposition Yposition Zposition Zrotation Xrotation Yrotation
                    JOINT lMid2
                    {
                      OFFSET 3.9766 -1.54 2.3863
                      CHANNELS 6 Xposition Yposition Zposition Zrotation Xrotation Yrotation
                      JOINT lMid2_End
                      {
                        OFFSET 1.4042 -1.926 1.125
                        CHANNELS 6 Xposition Yposition Zposition Zrotation Xrotation Yrotation
                        End Site
                        {
                          OFFSET 0.014 -0.0193 0.0113
                        }
                      }
                    }
                  }
                }
                JOINT lCarpal2
                {
                  OFFSET 2.0956 0.66 -0.3894
                  CHANNELS 6 Xposition Yposition Zposition Zrotation Xrotation Yrotation
                  JOINT lRing1
                  {
                    OFFSET 5.0395 -0.09 2.4971
                    CHANNELS 6 Xposition Yposition Zposition Zrotation Xrotation Yrotation
                    JOINT lRing2
                    {
                      OFFSET 3.7921 -1.552 1.4806
                      CHANNELS 6 Xposition Yposition Zposition Zrotation Xrotation Yrotation
                      JOINT lRing2_End
                      {
                        OFFSET 1.4655 -1.808 0.9609
                        CHANNELS 6 Xposition Yposition Zposition Zrotation Xrotation Yrotation
                        End Site
                        {
                          OFFSET 0.0147 -0.0181 0.0096
                        }
                      }
                    }
                  }
                  JOINT lPinky1
                  {
                    OFFSET 4.9141 -1.269 0.3591
                    CHANNELS 6 Xposition Yposition Zposition Zrotation Xrotation Yrotation
                    JOINT lPinky2
                    {
                      OFFSET 3.1477 -1.685 0.8462
                      CHANNELS 6 Xposition Yposition Zposition Zrotation Xrotation Yrotation
                      JOINT lPinky2_End
                      {
                        OFFSET 0.8055 -1.585 0.7955
                        CHANNELS 6 Xposition Yposition Zposition Zrotation Xrotation Yrotation
                        End Site
                        {
                          OFFSET 0.0081 -0.0158 0.008
                        }
                      }
                    }
                  }
                }
              }
            }
          }
        }
        JOINT rCollar
        {
          OFFSET -1.7069 20.075 5.0056
          CHANNELS 6 Xposition Yposition Zposition Zrotation Xrotation Yrotation
          JOINT rShldr
          {
            OFFSET -13.6458 -0.047 -4.849
            CHANNELS 6 Xposition Yposition Zposition Zrotation Xrotation Yrotation
            JOINT rForeArm
            {
              OFFSET -28.3255 -0.9759 2.2888
              CHANNELS 6 Xposition Yposition Zposition Zrotation Xrotation Yrotation
              JOINT rHand
              {
                OFFSET -22.1583 -0.53 10.8316
                CHANNELS 6 Xposition Yposition Zposition Zrotation Xrotation Yrotation
                JOINT rThumb1
                {
                  OFFSET -0.786 0.112 2.5817
                  CHANNELS 6 Xposition Yposition Zposition Zrotation Xrotation Yrotation
                  JOINT rThumb2
                  {
                    OFFSET -0.3601 -0.878 4.2331
                    CHANNELS 6 Xposition Yposition Zposition Zrotation Xrotation Yrotation
                    JOINT rThumb2_End
                    {
                      OFFSET -1.8127 -1.216 2.2227
                      CHANNELS 6 Xposition Yposition Zposition Zrotation Xrotation Yrotation
                      End Site
                      {
                        OFFSET -0.0181 -0.0122 0.0222
                      }
                    }
                  }
                }
                JOINT rCarpal1
                {
                  OFFSET -0.9571 1.114 1.7695
                  CHANNELS 6 Xposition Yposition Zposition Zrotation Xrotation Yrotation
                  JOINT rIndex1
                  {
                    OFFSET -4.1246 0.487 4.1451
                    CHANNELS 6 Xposition Yposition Zposition Zrotation Xrotation Yrotation
                    JOINT rIndex2
                    {
                      OFFSET -3.4052 -1.454 2.7682
                      CHANNELS 6 Xposition Yposition Zposition Zrotation Xrotation Yrotation
                      JOINT rIndex2_End
                      {
                        OFFSET -1.4531 -1.795 1.2713
                        CHANNELS 6 Xposition Yposition Zposition Zrotation Xrotation Yrotation
                        End Site
                        {
                          OFFSET -0.0145 -0.018 0.0127
                        }
                      }
                    }
                  }
                  JOINT rMid1
                  {
                    OFFSET -5.6954 0.21 2.1184
                    CHANNELS 6 Xposition Yposition Zposition Zrotation Xrotation Yrotation
                    JOINT rMid2
                    {
                      OFFSET -3.9766 -1.54 2.3863
                      CHANNELS 6 Xposition Yposition Zposition Zrotation Xrotation Yrotation
                      JOINT rMid2_End
                      {
                        OFFSET -1.4042 -1.926 1.125
                        CHANNELS 6 Xposition Yposition Zposition Zrotation Xrotation Yrotation
                        End Site
                        {
                          OFFSET -0.014 -0.0193 0.0113
                        }
                      }
                    }
                  }
                }
                JOINT rCarpal2
                {
                  OFFSET -2.0956 0.66 -0.3894
                  CHANNELS 6 Xposition Yposition Zposition Zrotation Xrotation Yrotation
                  JOINT rRing1
                  {
                    OFFSET -5.0395 -0.09 2.4971
                    CHANNELS 6 Xposition Yposition Zposition Zrotation Xrotation Yrotation
                    JOINT rRing2
                    {
                      OFFSET -3.7921 -1.552 1.4806
                      CHANNELS 6 Xposition Yposition Zposition Zrotation Xrotation Yrotation
                      JOINT rRing2_End
                      {
                        OFFSET -1.4655 -1.808 0.9609
                        CHANNELS 6 Xposition Yposition Zposition Zrotation Xrotation Yrotation
                        End Site
                        {
                          OFFSET -0.0147 -0.0181 0.0096
                        }
                      }
                    }
                  }
                  JOINT rPinky1
                  {
                    OFFSET -4.9141 -1.269 0.3592
                    CHANNELS 6 Xposition Yposition Zposition Zrotation Xrotation Yrotation
                    JOINT rPinky2
                    {
                      OFFSET -3.1477 -1.685 0.8462
                      CHANNELS 6 Xposition Yposition Zposition Zrotation Xrotation Yrotation
                      JOINT rPinky2_End
                      {
                        OFFSET -0.8055 -1.585 0.7955
                        CHANNELS 6 Xposition Yposition Zposition Zrotation Xrotation Yrotation
                        End Site
                        {
                          OFFSET -0.0081 -0.0158 0.008
                        }
                      }
                    }
                  }
                }
              }
            }
          }
        }
      }
    }
  }
  JOINT lThigh
  {
    OFFSET 8.367 -8.2066 0.5982
    CHANNELS 6 Xposition Yposition Zposition Zrotation Xrotation Yrotation
    JOINT lShin
    {
      OFFSET 2.1923 -43.463 -0.4932
      CHANNELS 6 Xposition Yposition Zposition Zrotation Xrotation Yrotation
      JOINT lFoot
      {
        OFFSET 0.7333 -45.8593 -2.6451
        CHANNELS 6 Xposition Yposition Zposition Zrotation Xrotation Yrotation
        End Site
        {
          OFFSET 2.6618 -4.2699 12.3931
        }
      }
    }
  }
  JOINT rThigh
  {
    OFFSET -8.367 -8.2066 0.5982
    CHANNELS 6 Xposition Yposition Zposition Zrotation Xrotation Yrotation
    JOINT rShin
    {
      OFFSET -2.1923 -43.463 -0.4931
      CHANNELS 6 Xposition Yposition Zposition Zrotation Xrotation Yrotation
      JOINT rFoot
      {
        OFFSET -0.7333 -45.8593 -2.6451
        CHANNELS 6 Xposition Yposition Zposition Zrotation Xrotation Yrotation
        End Site
        {
          OFFSET -2.6618 -4.2699 12.3931
        }
      }
    }
  }
}
MOTION
Frames:	4
Frame Time:	0.0333333
-0.387873 -5.52661 49.0364 -180 -44 -180 0 -1.186 -1.5018 0.622109 10.1252 0.118457 0 9.964 0.2134 1.25268 20.251 0.126175 0 13.134 -3.2573 1.25268 20.251 0.126175 4.44089e-016 20.686 -1.6905 -2.75064e-005 17.9981 1.02182e-005 2.22045e-016 7.238 -0.1237 0.0653356 -7.72342 -26.5448 1.7069 20.075 5.0056 -15.579 10.9735 -42.9397 13.6458 -0.047 -4.849 -43.3113 2.41715 9.62104 28.3255 -0.9759 2.2888 -52.7632 -44.3857 -73.9048 22.1583 -0.53 10.8316 -51.3738 31.5386 6.62521 0.786 0.112 2.5817 -1.19271e-015 -2.70347e-014 9.54166e-015 0.3601 -0.878 4.2331 -3.57812e-015 -2.06736e-014 -0 1.8127 -1.216 2.2227 -7.95139e-016 -2.22639e-014 -3.18055e-015 0.9571 1.114 1.7695 -1.59028e-015 -3.18055e-015 6.36111e-015 4.1246 0.487 4.1451 6.75868e-015 -2.22639e-014 9.54166e-015 3.4052 -1.454 2.7682 -4.77083e-015 -2.8625e-014 3.18055e-015 1.4531 -1.795 1.2713 3.18055e-015 -2.54444e-014 -0 5.6954 0.21 2.1184 6.75868e-015 -2.22639e-014 9.54166e-015 3.9766 -1.54 2.3863 -4.77083e-015 -2.8625e-014 3.18055e-015 1.4042 -1.926 1.125 3.18055e-015 -2.54444e-014 -0 2.0956 0.66 -0.3894 -1.59028e-015 -3.18055e-015 6.36111e-015 5.0395 -0.09 2.4971 6.75868e-015 -2.22639e-014 9.54166e-015 3.7921 -1.552 1.4806 -4.77083e-015 -2.8625e-014 3.18055e-015 1.4655 -1.808 0.9609 3.18055e-015 -2.54444e-014 -0 4.9141 -1.269 0.3591 6.75868e-015 -2.22639e-014 9.54166e-015 3.1477 -1.685 0.8462 -4.77083e-015 -2.8625e-014 3.18055e-015 0.8055 -1.585 0.7955 3.18055e-015 -2.54444e-014 -0 -1.7069 20.075 5.0056 15.6194 11.3553 42.5369 -13.6458 -0.047 -4.849 43.4716 2.39496 -8.92445 -28.3255 -0.9759 2.2888 51.6421 -46.6103 72.5152 -22.1583 -0.53 10.8316 56.6241 38.6365 -9.20836 -0.786 0.112 2.5817 -3.57812e-015 1.59028e-015 -0 -0.3601 -0.878 4.2331 4.59458e-007 -2.94255e-007 3.74403e-007 -1.8127 -1.216 2.2227 -4.59458e-007 2.94255e-007 -3.74403e-007 -0.9571 1.114 1.7695 -3.97569e-016 7.95139e-016 -0 -4.1246 0.487 4.1451 7.95139e-016 -4.77083e-015 6.36111e-015 -3.4052 -1.454 2.7682 4.59458e-007 -2.94255e-007 3.74403e-007 -1.4531 -1.795 1.2713 -4.59458e-007 2.94255e-007 -3.74403e-007 -5.6954 0.21 2.1184 7.95139e-016 -4.77083e-015 6.36111e-015 -3.9766 -1.54 2.3863 4.59458e-007 -2.94255e-007 3.74403e-007 -1.4042 -1.926 1.125 -4.59458e-007 2.94255e-007 -3.74403e-007 -2.0956 0.66 -0.3894 -3.97569e-016 7.95139e-016 -0 -5.0395 -0.09 2.4971 7.95139e-016 -4.77083e-015 6.36111e-015 -3.7921 -1.552 1.4806 4.59458e-007 -2.94255e-007 3.74403e-007 -1.4655 -1.808 0.9609 -4.59458e-007 2.94255e-007 -3.74403e-007 -4.9141 -1.269 0.3592 7.95139e-016 -4.77083e-015 6.36111e-015 -3.1477 -1.685 0.8462 4.59458e-007 -2.94255e-007 3.74403e-007 -0.8055 -1.585 0.7955 -4.59458e-007 2.94255e-007 -3.74403e-007 8.367 -8.2066 0.5982 132.518 -75.2226 146.043 2.1923 -43.463 -0.4932 3.19042 27.7676 -0.432953 0.7333 -45.8593 -2.6451 11.2643 2.85456 -11.4844 -8.367 -8.2066 0.5982 -159.969 -79.3026 -166.322 -2.1923 -43.463 -0.4931 1.52593 39.7752 -2.97125 -0.7333 -45.8593 -2.6451 -12.4228 14.5756 4.44661 
-0.394261 -5.53221 49.029 -180 -44 -180 0 -1.186 -1.5018 0.623549 10.2117 0.115924 0 9.964 0.2134 1.25645 20.4241 0.119697 -2.22045e-016 13.134 -3.2573 1.25646 20.424 0.119698 2.22045e-016 20.686 -1.6905 -3.78005e-005 17.9987 1.03734e-005 0 7.238 -0.1237 0.108508 -7.53652 -26.2396 1.7069 20.075 5.0056 -15.3355 10.5882 -42.9738 13.6458 -0.047 -4.849 -43.5624 2.41713 9.61322 28.3255 -0.9759 2.2888 -52.7446 -44.2313 -73.9332 22.1583 -0.53 10.8316 -51.075 31.7209 6.37271 0.786 0.112 2.5817 1.27222e-014 -1.59028e-015 -0 0.3601 -0.878 4.2331 7.55382e-015 -3.18055e-015 -0 1.8127 -1.216 2.2227 5.56597e-015 -4.77083e-015 -0 0.9571 1.114 1.7695 3.57812e-015 0 6.36111e-015 4.1246 0.487 4.1451 7.55382e-015 -3.18055e-015 1.27222e-014 3.4052 -1.454 2.7682 1.27222e-014 -6.36111e-015 -6.36111e-015 1.4531 -1.795 1.2713 6.36111e-015 0 -6.36111e-015 5.6954 0.21 2.1184 7.55382e-015 -3.18055e-015 1.27222e-014 3.9766 -1.54 2.3863 1.27222e-014 -6.36111e-015 -6.36111e-015 1.4042 -1.926 1.125 6.36111e-015 0 -6.36111e-015 2.0956 0.66 -0.3894 3.57812e-015 0 6.36111e-015 5.0395 -0.09 2.4971 7.55382e-015 -3.18055e-015 1.27222e-014 3.7921 -1.552 1.4806 1.27222e-014 -6.36111e-015 -6.36111e-015 1.4655 -1.808 0.9609 6.36111e-015 0 -6.36111e-015 4.9141 -1.269 0.3591 7.55382e-015 -3.18055e-015 1.27222e-014 3.1477 -1.685 0.8462 1.27222e-014 -6.36111e-015 -6.36111e-015 0.8055 -1.585 0.7955 6.36111e-015 0 -6.36111e-015 -1.7069 20.075 5.0056 15.3727 10.9574 42.5861 -13.6458 -0.047 -4.849 43.7243 2.39445 -8.91576 -28.3255 -0.9759 2.2888 51.6286 -46.4533 72.5505 -22.1583 -0.53 10.8316 56.088 38.5989 -8.79217 -0.786 0.112 2.5817 -8.74653e-015 -1.59028e-015 3.18055e-015 -0.3601 -0.878 4.2331 -1.05934e-030 -6.36111e-015 -9.54166e-015 -1.8127 -1.216 2.2227 -1.98785e-015 -7.95139e-016 -6.36111e-015 -0.9571 1.114 1.7695 -8.34896e-015 -1.59028e-015 6.36111e-015 -4.1246 0.487 4.1451 -1.59028e-015 -2.38542e-015 6.36111e-015 -3.4052 -1.454 2.7682 -3.97569e-016 7.95139e-016 -0 -1.4531 -1.795 1.2713 0 1.59028e-015 -0 -5.6954 0.21 2.1184 -1.59028e-015 -2.38542e-015 6.36111e-015 -3.9766 -1.54 2.3863 -3.97569e-016 7.95139e-016 -0 -1.4042 -1.926 1.125 0 1.59028e-015 -0 -2.0956 0.66 -0.3894 -8.34896e-015 -1.59028e-015 6.36111e-015 -5.0395 -0.09 2.4971 -1.59028e-015 -2.38542e-015 6.36111e-015 -3.7921 -1.552 1.4806 -3.97569e-016 7.95139e-016 -0 -1.4655 -1.808 0.9609 0 1.59028e-015 -0 -4.9141 -1.269 0.3592 -1.59028e-015 -2.38542e-015 6.36111e-015 -3.1477 -1.685 0.8462 -3.97569e-016 7.95139e-016 -0 -0.8055 -1.585 0.7955 0 1.59028e-015 -0 8.367 -8.2066 0.5982 131.955 -75.0845 145.5 2.1923 -43.463 -0.4932 3.18907 27.7455 -0.431566 0.7333 -45.8593 -2.6451 11.2719 2.86147 -11.4856 -8.367 -8.2066 0.5982 -159.386 -79.2977 -165.76 -2.1923 -43.463 -0.4931 1.53138 40.07 -3.00062 -0.7333 -45.8593 -2.6451 -12.4347 14.5907 4.4502 
-0.40068 -5.53781 49.0216 -180 -44 -180 0 -1.186 -1.5018 0.624989 10.2983 0.113383 0 9.964 0.2134 1.26025 20.5971 0.113192 2.22045e-016 13.134 -3.2573 1.26025 20.5971 0.113193 -2.22045e-016 20.686 -1.6905 -3.47197e-005 17.9984 1.0351e-005 -2.22045e-016 7.238 -0.1237 0.150684 -7.34925 -25.9344 1.7069 20.075 5.0056 -15.0926 10.2026 -43.0063 13.6458 -0.047 -4.849 -43.8135 2.41712 9.60535 28.3255 -0.9759 2.2888 -52.726 -44.0768 -73.9617 22.1583 -0.53 10.8316 -50.7746 31.9021 6.11853 0.786 0.112 2.5817 -2.84758e-006 2.14826e-006 -7.72981e-008 0.3601 -0.878 4.2331 -1.3862e-006 3.39308e-007 -6.72309e-007 1.8127 -1.216 2.2227 -4.59875e-006 2.38852e-006 1.07706e-006 0.9571 1.114 1.7695 -1.19271e-015 0 -6.36111e-015 4.1246 0.487 4.1451 -2.84758e-006 2.14826e-006 -7.72981e-008 3.4052 -1.454 2.7682 -1.3862e-006 3.39308e-007 -6.72309e-007 1.4531 -1.795 1.2713 -4.59875e-006 2.38852e-006 1.07706e-006 5.6954 0.21 2.1184 -2.84758e-006 2.14826e-006 -7.72981e-008 3.9766 -1.54 2.3863 -1.3862e-006 3.39308e-007 -6.72309e-007 1.4042 -1.926 1.125 -4.59875e-006 2.38852e-006 1.07706e-006 2.0956 0.66 -0.3894 -1.19271e-015 0 -6.36111e-015 5.0395 -0.09 2.4971 -2.84758e-006 2.14826e-006 -7.72981e-008 3.7921 -1.552 1.4806 -1.3862e-006 3.39308e-007 -6.72309e-007 1.4655 -1.808 0.9609 -4.59875e-006 2.38852e-006 1.07706e-006 4.9141 -1.269 0.3591 -2.84758e-006 2.14826e-006 -7.72981e-008 3.1477 -1.685 0.8462 -1.3862e-006 3.39308e-007 -6.72309e-007 0.8055 -1.585 0.7955 -4.59875e-006 2.38852e-006 1.07706e-006 -1.7069 20.075 5.0056 15.1267 10.5591 42.6336 -13.6458 -0.047 -4.849 43.977 2.39395 -8.90705 -28.3255 -0.9759 2.2888 51.6149 -46.2962 72.5856 -22.1583 -0.53 10.8316 55.5524 38.5582 -8.37656 -0.786 0.112 2.5817 3.09729e-006 1.32838e-006 -1.25768e-007 -0.3601 -0.878 4.2331 4.75957e-006 2.5e-006 -6.96664e-007 -1.8127 -1.216 2.2227 3.22766e-006 5.21468e-007 -3.55789e-007 -0.9571 1.114 1.7695 0 1.59028e-015 -0 -4.1246 0.487 4.1451 3.09729e-006 1.32838e-006 -1.25768e-007 -3.4052 -1.454 2.7682 4.75957e-006 2.5e-006 -6.96664e-007 -1.4531 -1.795 1.2713 3.22766e-006 5.21468e-007 -3.55789e-007 -5.6954 0.21 2.1184 3.09729e-006 1.32838e-006 -1.25768e-007 -3.9766 -1.54 2.3863 4.75957e-006 2.5e-006 -6.96664e-007 -1.4042 -1.926 1.125 3.22766e-006 5.21468e-007 -3.55789e-007 -2.0956 0.66 -0.3894 0 1.59028e-015 -0 -5.0395 -0.09 2.4971 3.09729e-006 1.32838e-006 -1.25768e-007 -3.7921 -1.552 1.4806 4.75957e-006 2.5e-006 -6.96664e-007 -1.4655 -1.808 0.9609 3.22766e-006 5.21468e-007 -3.55789e-007 -4.9141 -1.269 0.3592 3.09729e-006 1.32838e-006 -1.25768e-007 -3.1477 -1.685 0.8462 4.75957e-006 2.5e-006 -6.96664e-007 -0.8055 -1.585 0.7955 3.22766e-006 5.21468e-007 -3.55789e-007 8.367 -8.2066 0.5982 131.403 -74.9449 144.968 2.1923 -43.463 -0.4932 3.18772 27.7236 -0.430182 0.7333 -45.8593 -2.6451 11.2795 2.86829 -11.4867 -8.367 -8.2066 0.5982 -158.804 -79.2917 -165.198 -2.1923 -43.463 -0.4931 1.53692 40.3648 -3.03017 -0.7333 -45.8593 -2.6451 -12.4467 14.6058 4.4538 
-0.407131 -5.54339 49.0142 -180 -44 -180 0 -1.186 -1.5018 0.626431 10.3848 0.110836 0 9.964 0.2134 1.26406 20.7703 0.10666 2.22045e-016 13.134 -3.2573 1.26406 20.7703 0.10666 2.22045e-016 20.686 -1.6905 -1.83222e-005 17.9983 3.81082e-006 0 7.238 -0.1237 0.191877 -7.16161 -25.6293 1.7069 20.075 5.0056 -14.85 9.81664 -43.0371 13.6458 -0.047 -4.849 -44.0647 2.41716 9.59753 28.3255 -0.9759 2.2888 -52.7074 -43.9224 -73.9901 22.1583 -0.53 10.8316 -50.4727 32.0822 5.86271 0.786 0.112 2.5817 -6.36111e-015 0 -6.36111e-015 0.3601 -0.878 4.2331 -1.70955e-014 0 -6.36111e-015 1.8127 -1.216 2.2227 -6.75868e-015 1.59028e-015 -3.18055e-015 0.9571 1.114 1.7695 -5.56597e-015 0 -3.18055e-015 4.1246 0.487 4.1451 -1.11319e-014 -1.59028e-015 -3.18055e-015 3.4052 -1.454 2.7682 -3.97569e-015 1.59028e-015 -6.36111e-015 1.4531 -1.795 1.2713 -1.59028e-015 6.36111e-015 -3.18055e-015 5.6954 0.21 2.1184 -1.11319e-014 -1.59028e-015 -3.18055e-015 3.9766 -1.54 2.3863 -3.97569e-015 1.59028e-015 -6.36111e-015 1.4042 -1.926 1.125 -1.59028e-015 6.36111e-015 -3.18055e-015 2.0956 0.66 -0.3894 -5.56597e-015 0 -3.18055e-015 5.0395 -0.09 2.4971 -1.11319e-014 -1.59028e-015 -3.18055e-015 3.7921 -1.552 1.4806 -3.97569e-015 1.59028e-015 -6.36111e-015 1.4655 -1.808 0.9609 -1.59028e-015 6.36111e-015 -3.18055e-015 4.9141 -1.269 0.3591 -1.11319e-014 -1.59028e-015 -3.18055e-015 3.1477 -1.685 0.8462 -3.97569e-015 1.59028e-015 -6.36111e-015 0.8055 -1.585 0.7955 -1.59028e-015 6.36111e-015 -3.18055e-015 -1.7069 20.075 5.0056 14.8812 10.1605 42.6794 -13.6458 -0.047 -4.849 44.2298 2.3935 -8.89838 -28.3255 -0.9759 2.2888 51.6012 -46.1391 72.6208 -22.1583 -0.53 10.8316 55.0174 38.5144 -7.96151 -0.786 0.112 2.5817 3.97569e-016 -2.38542e-015 3.18055e-015 -0.3601 -0.878 4.2331 3.57812e-015 -3.18055e-015 -3.18055e-015 -1.8127 -1.216 2.2227 4.37326e-015 -1.59028e-015 -0 -0.9571 1.114 1.7695 3.97569e-016 -2.38542e-015 3.18055e-015 -4.1246 0.487 4.1451 1.19271e-015 -3.18055e-015 3.18055e-015 -3.4052 -1.454 2.7682 -1.59028e-015 -1.59028e-015 -3.18055e-015 -1.4531 -1.795 1.2713 -4.37326e-015 -3.18055e-015 -0 -5.6954 0.21 2.1184 1.19271e-015 -3.18055e-015 3.18055e-015 -3.9766 -1.54 2.3863 -1.59028e-015 -1.59028e-015 -3.18055e-015 -1.4042 -1.926 1.125 -4.37326e-015 -3.18055e-015 -0 -2.0956 0.66 -0.3894 3.97569e-016 -2.38542e-015 3.18055e-015 -5.0395 -0.09 2.4971 1.19271e-015 -3.18055e-015 3.18055e-015 -3.7921 -1.552 1.4806 -1.59028e-015 -1.59028e-015 -3.18055e-015 -1.4655 -1.808 0.9609 -4.37326e-015 -3.18055e-015 -0 -4.9141 -1.269 0.3592 1.19271e-015 -3.18055e-015 3.18055e-015 -3.1477 -1.685 0.8462 -1.59028e-015 -1.59028e-015 -3.18055e-015 -0.8055 -1.585 0.7955 -4.37326e-015 -3.18055e-015 -0 8.367 -8.2066 0.5982 130.861 -74.8039 144.445 2.1923 -43.463 -0.4932 3.18639 27.7018 -0.428805 0.7333 -45.8593 -2.6451 11.2871 2.87509 -11.4878 -8.367 -8.2066 0.5982 -158.222 -79.2845 -164.638 -2.1923 -43.463 -0.4931 1.54255 40.6599 -3.05989 -0.7333 -45.8593 -2.6451 -12.4586 14.6209 4.45739 
